<?xml version="1.0" standalone="no"?>
<!DOCTYPE svg PUBLIC "-//W3C//DTD SVG 20010904//EN"
 "http://www.w3.org/TR/2001/REC-SVG-20010904/DTD/svg10.dtd">
<svg version="1.0" xmlns="http://www.w3.org/2000/svg"
 width="600.000000pt" height="600.000000pt" viewBox="0 0 600.000000 600.000000"
 preserveAspectRatio="xMidYMid meet">
<metadata>
Created by potrace 1.14, written by Peter Selinger 2001-2017
</metadata>
<g transform="translate(0.000000,600.000000) scale(0.100000,-0.100000)"
fill="#000000" stroke="none">
<path d="M0 3000 l0 -3000 300 0 300 0 2 193 c0 105 2 197 3 202 2 6 3 25 4
42 l1 33 218 -4 c182 -3 217 -6 220 -18 6 -32 -17 -171 -30 -179 -7 -5 -14
-16 -15 -26 -3 -27 -11 -62 -18 -73 -3 -6 -2 -10 4 -10 7 0 7 -8 1 -24 -6 -17
-5 -26 3 -30 9 -3 9 -5 0 -5 -7 -1 -13 -6 -13 -12 0 -5 5 -7 12 -3 7 4 8 3 4
-5 -4 -6 -2 -18 4 -26 7 -8 9 -15 5 -15 -4 0 -2 -6 4 -13 6 -8 8 -17 4 -20 -3
-4 441 -7 987 -7 l993 0 -7 117 c-3 65 -9 199 -11 298 -3 99 -10 248 -17 332
-9 115 -9 205 0 375 7 122 12 258 12 301 l0 79 51 -7 c27 -4 62 -10 76 -14
l25 -7 3 -529 c1 -292 6 -623 10 -738 8 -197 9 -207 28 -207 19 0 19 5 14 93
-9 130 -22 755 -21 982 1 225 12 385 26 385 5 0 34 -7 63 -15 l52 -16 7 -61
c3 -33 6 -287 6 -563 0 -276 3 -570 7 -653 6 -142 7 -152 26 -152 18 0 19 5
13 103 -4 56 -9 373 -11 705 l-3 603 21 -7 c32 -9 116 -55 125 -68 4 -6 5
-207 0 -446 -4 -266 -4 -488 2 -570 6 -74 10 -177 10 -227 0 -88 1 -93 22 -93
21 0 21 0 12 157 -9 156 -6 1123 3 1133 9 10 73 -75 67 -90 -7 -19 -6 -462 1
-585 5 -86 10 -142 36 -468 l12 -147 39 0 38 0 -1 63 c0 34 -8 145 -18 247
-19 196 -26 388 -26 690 0 194 4 221 49 294 l23 39 -1 -464 c-1 -306 3 -512
12 -604 7 -77 14 -168 15 -202 2 -54 5 -63 21 -63 21 0 21 2 -4 346 -15 201
-10 991 7 1020 6 11 34 34 62 52 l51 31 0 -187 0 -188 -30 -11 c-52 -20 -50
-105 3 -118 23 -6 24 -11 30 -118 12 -200 9 -256 -13 -284 -27 -34 -25 -69 4
-98 21 -21 25 -37 33 -146 9 -118 9 -124 -10 -140 -30 -24 -27 -76 6 -105 15
-13 27 -30 27 -39 0 -8 7 -15 15 -15 8 0 15 8 15 18 0 11 9 27 20 37 29 26 27
80 -4 108 -22 20 -25 36 -34 141 -10 115 -10 120 10 136 30 24 27 76 -6 107
l-26 24 0 192 c0 124 4 197 11 204 12 12 2 80 -12 89 -10 6 -12 221 -3 341 l7
81 45 34 c25 18 54 40 65 48 20 14 20 13 13 -47 -4 -34 -7 -245 -7 -468 0
-389 10 -655 31 -850 21 -196 21 -195 43 -195 16 0 18 5 13 33 -13 71 -35 322
-47 534 -14 259 -8 954 9 993 8 19 11 -8 12 -120 0 -80 2 -179 5 -220 2 -41 6
-149 10 -240 7 -190 27 -412 56 -620 19 -139 26 -182 50 -305 l10 -55 489 0
c381 0 489 3 493 13 4 9 6 9 6 0 1 -10 82 -13 371 -13 l370 0 0 3000 0 3000
-3000 0 -3000 0 0 -3000z m3238 2195 c258 -45 463 -144 655 -316 64 -57 162
-160 111 -116 -29 25 -37 21 -21 -10 17 -34 23 -173 8 -173 -6 0 -11 -17 -11
-39 0 -22 -6 -44 -15 -51 -8 -7 -15 -19 -15 -26 0 -8 -4 -14 -9 -14 -10 0 -24
-43 -25 -76 -1 -11 -7 -28 -14 -37 -7 -8 -14 -28 -16 -42 -2 -15 -7 -30 -12
-33 -12 -9 -36 -73 -36 -94 1 -10 -3 -18 -8 -18 -8 0 -50 -61 -50 -74 0 -4 5
-4 12 0 15 9 -37 -67 -130 -192 -43 -56 -101 -120 -133 -145 -31 -24 -62 -54
-68 -67 -7 -15 -16 -20 -24 -16 -7 5 -6 0 3 -11 8 -10 11 -16 5 -13 -97 55
-207 67 -289 30 -89 -40 -155 -135 -157 -225 -1 -23 -3 -34 -6 -25 -3 14 -9
15 -34 6 -16 -5 -29 -14 -29 -20 0 -5 -4 -7 -8 -4 -5 3 -32 -1 -60 -9 -29 -7
-61 -11 -72 -8 -11 3 -20 0 -20 -6 0 -6 -7 -8 -17 -4 -11 4 -14 3 -9 -6 6 -9
3 -9 -13 1 -17 10 -23 11 -29 0 -5 -7 -36 -14 -75 -16 -36 -2 -70 -6 -74 -8
-10 -5 -23 -3 -47 7 -11 5 -21 3 -26 -4 -5 -10 -11 -9 -23 3 -18 19 -31 21
-21 4 5 -7 3 -8 -6 -3 -7 4 -31 10 -54 11 -23 2 -51 6 -63 9 -15 3 -23 0 -26
-12 -3 -10 -5 -3 -6 15 -1 44 -43 123 -81 155 -45 38 -128 58 -308 72 -70 6
-81 9 -71 21 7 8 9 17 5 21 -3 3 -6 1 -6 -5 0 -7 -3 -12 -7 -12 -12 0 -55 71
-49 78 3 3 6 1 6 -4 0 -5 9 -20 20 -34 l19 -25 -2 33 c-1 20 -8 34 -19 38 -16
5 -16 9 -3 42 7 20 21 62 29 92 14 49 19 57 50 68 113 41 275 155 316 222 23
37 28 39 71 40 204 1 639 249 639 364 0 14 16 34 43 54 77 59 168 156 194 207
45 86 30 215 -28 246 -17 9 -29 6 -67 -15 -95 -53 -232 -116 -252 -116 -17 0
-18 3 -10 26 25 65 -3 189 -48 213 -41 22 -70 12 -139 -47 -85 -72 -173 -133
-236 -160 l-49 -22 -25 30 c-13 16 -39 34 -56 38 l-32 9 36 19 c224 117 316
151 494 179 115 18 421 18 523 0z m-547 -168 c25 -93 -110 -287 -272 -390 -59
-38 -142 -81 -176 -91 l-21 -7 23 58 c23 55 28 60 102 101 96 54 143 89 143
108 0 20 -17 17 -53 -10 -18 -13 -58 -38 -91 -55 -56 -30 -58 -30 -52 -8 3 12
9 39 12 59 5 32 12 39 47 53 70 28 169 91 242 154 39 33 74 59 79 57 6 -1 13
-14 17 -29z m1663 -235 l64 -73 -16 -39 c-10 -22 -20 -40 -23 -40 -8 0 -86
116 -94 140 -3 11 -13 20 -21 20 -29 0 -13 -48 46 -134 39 -57 60 -99 60 -117
0 -34 -1 -34 -43 -12 -37 19 -49 33 -79 88 -61 116 -83 248 -57 351 l12 45 44
-78 c24 -43 72 -111 107 -151z m-1287 98 c-9 -75 -58 -139 -170 -224 l-49 -36
-121 1 -122 1 110 37 c154 52 201 79 177 103 -6 6 -24 2 -53 -13 -57 -29 -223
-81 -211 -66 5 7 26 34 47 62 35 46 42 51 110 67 81 19 166 54 222 92 57 39
67 35 60 -24z m-847 -16 c18 -47 -26 -184 -121 -379 -61 -127 -92 -160 -163
-178 l-54 -15 13 38 c8 21 16 53 19 70 3 23 27 56 84 114 91 93 110 122 92
140 -9 8 -17 4 -34 -19 -11 -16 -46 -57 -78 -89 l-56 -60 -12 44 c-7 25 -16
50 -21 56 -7 8 2 19 27 33 19 12 90 77 157 146 67 68 125 125 130 125 4 0 12
-12 17 -26z m-190 -17 c0 -2 -10 -12 -22 -23 l-23 -19 19 23 c18 21 26 27 26
19z m2490 -214 c0 -32 12 -76 36 -133 51 -121 59 -151 42 -161 -20 -13 -28
-11 -28 9 0 29 -41 142 -51 142 -19 0 -21 -31 -5 -71 20 -50 16 -58 -10 -21
-34 46 -47 90 -42 141 5 50 37 141 51 141 4 0 7 -21 7 -47z m-2716 -83 c40
-73 37 -122 -11 -222 l-39 -81 -16 25 c-16 24 -15 29 13 112 17 47 27 91 24
96 -12 19 -33 10 -38 -18 -11 -56 -49 -144 -65 -150 -10 -3 -25 -15 -35 -27
-18 -20 -18 -20 -13 15 4 19 28 80 55 135 27 55 55 119 62 142 14 50 23 47 63
-27z m874 -20 l135 0 -24 -26 c-40 -43 -138 -109 -236 -158 -90 -45 -243 -96
-287 -96 -21 0 -22 4 -19 58 3 31 6 62 8 68 2 7 51 13 132 17 141 6 169 11
178 34 9 25 0 27 -62 15 -32 -7 -107 -13 -168 -14 l-110 -3 91 41 c50 22 102
48 115 58 18 13 35 16 68 12 24 -3 105 -6 179 -6z m1567 -65 c37 -14 84 -34
104 -45 64 -32 142 -135 119 -158 -10 -10 -100 51 -142 97 -21 23 -46 28 -46
8 0 -22 26 -51 84 -92 32 -23 55 -46 53 -55 -7 -45 -118 -2 -165 64 -36 50
-95 206 -78 206 2 0 34 -11 71 -25z m-2106 -242 c-31 -65 -102 -130 -201 -185
-46 -27 -90 -48 -96 -48 -21 0 -13 50 13 74 13 12 53 35 89 50 63 27 88 52 63
62 -15 5 -143 -49 -168 -72 -15 -14 -17 -11 -24 23 -9 49 0 54 133 88 59 14
130 38 157 53 60 33 67 23 34 -45z m-666 33 c60 -44 91 -126 72 -187 -6 -18
-17 -3 -61 82 -30 56 -62 111 -72 122 -16 19 -16 19 8 12 13 -4 38 -17 53 -29z
m3175 -49 c-29 -34 -80 -106 -112 -159 -56 -91 -86 -124 -86 -95 0 17 38 88
61 113 24 26 24 44 0 44 -32 0 -101 -119 -101 -175 0 -33 -28 -33 -36 0 -14
58 106 237 191 283 43 24 108 51 123 51 7 1 -11 -27 -40 -62z m-2928 -84 c35
-68 34 -188 -3 -293 l-26 -75 1 105 c2 88 -1 105 -14 108 -20 4 -28 -35 -29
-137 l0 -76 -16 40 c-25 64 -23 195 5 285 24 76 39 103 51 96 4 -3 18 -26 31
-53z m2567 -205 c-3 -8 -6 -5 -6 6 -1 11 2 17 5 13 3 -3 4 -12 1 -19z m-2542
-327 c-6 -5 -25 10 -25 20 0 5 6 4 14 -3 8 -7 12 -15 11 -17z m1599 -105 c28
-26 36 -41 36 -69 0 -108 -155 -143 -205 -47 -19 37 -19 54 1 95 30 65 111 75
168 21z m1112 -36 c89 -55 57 -175 -50 -187 -42 -5 -48 -3 -81 30 -42 42 -47
89 -14 131 39 49 92 58 145 26z m-2459 -96 c-3 -3 -12 -4 -19 -1 -8 3 -5 6 6
6 11 1 17 -2 13 -5z m2214 -191 c13 -16 12 -17 -3 -4 -17 13 -22 21 -14 21 2
0 10 -8 17 -17z m-2554 -55 c-3 -8 -6 -5 -6 6 -1 11 2 17 5 13 3 -3 4 -12 1
-19z m0 -155 c-2 -16 -4 -5 -4 22 0 28 2 40 4 28 2 -13 2 -35 0 -50z m16 -66
c16 10 47 11 41 2 -2 -4 5 -13 17 -19 15 -8 19 -9 15 -1 -15 24 22 9 47 -19
15 -16 37 -31 50 -31 12 -1 5 -5 -18 -10 -56 -12 -165 -8 -166 5 0 6 -2 31 -4
56 -1 25 -1 37 2 27 3 -10 9 -14 16 -10z m303 -272 c8 -8 16 -28 17 -44 1 -16
5 -27 10 -24 4 2 7 -1 7 -6 0 -6 -5 -11 -10 -11 -7 0 -7 -6 0 -20 6 -11 7 -20
3 -20 -4 0 2 -7 13 -16 11 -9 3 -7 -18 5 -56 30 -131 50 -219 57 -42 4 -82 10
-88 14 -7 3 -14 23 -18 43 l-6 37 147 0 c116 0 151 -3 162 -15z m-756 -200
c-7 -9 -11 -16 -9 -18 40 -23 72 -36 79 -32 4 2 5 -15 3 -39 -3 -24 -1 -46 5
-50 5 -3 36 8 69 24 149 75 419 94 537 39 63 -30 116 -62 111 -67 -2 -3 -10 0
-17 5 -28 22 -43 11 -45 -36 -1 -27 -11 -56 -23 -73 -16 -22 -18 -32 -10 -53
5 -14 6 -24 1 -21 -12 8 -33 -71 -26 -95 4 -13 2 -19 -6 -17 -11 3 -18 -14
-32 -79 -2 -7 -6 -16 -10 -19 -4 -4 -7 -17 -7 -28 0 -12 -9 -34 -20 -51 -11
-16 -20 -38 -20 -48 0 -10 -6 -20 -14 -23 -8 -3 -13 -11 -10 -19 3 -7 -2 -19
-10 -28 -9 -9 -16 -23 -16 -31 0 -9 -5 -16 -11 -16 -5 0 -8 -4 -5 -9 3 -4 -9
-33 -27 -63 -18 -30 -54 -100 -82 -156 -44 -88 -53 -101 -76 -102 -89 -1 -230
-72 -304 -151 -83 -90 -125 -219 -175 -536 l-12 -73 -224 0 c-207 0 -224 1
-224 18 0 14 -10 17 -53 19 -94 4 -103 8 -67 31 30 18 27 67 -5 88 -24 16 -27
15 -45 -1 -27 -24 -33 -50 -20 -77 7 -13 -3 -6 -24 17 -22 24 -34 47 -32 60 6
34 15 97 21 150 10 83 53 284 81 380 91 311 241 605 443 865 58 76 303 330
318 330 3 0 0 -7 -7 -15z m3299 -435 c314 -386 482 -802 530 -1314 7 -65 9
-121 5 -125 -6 -6 -436 -9 -595 -3 l-95 3 -22 232 c-12 128 -24 266 -27 309
-8 89 -8 599 -1 643 3 17 10 86 16 155 9 105 16 158 26 203 1 4 2 21 3 39 l1
32 41 -39 c23 -22 76 -83 118 -135z m-793 -7 c-14 -332 -28 -508 -41 -521 -14
-14 -43 168 -39 243 6 119 14 199 25 239 23 91 50 176 55 176 3 0 3 -62 0
-137z m-853 -453 l57 -13 -1 -156 c0 -86 -4 -176 -8 -201 l-7 -45 -8 45 c-5
25 -20 81 -33 125 -14 44 -35 114 -47 155 -13 41 -27 84 -31 94 -6 15 -5 18 6
14 8 -3 40 -11 72 -18z m-1282 -467 c-1 -89 -4 -172 -7 -185 -3 -13 -7 -149
-9 -303 -2 -154 -4 -295 -4 -312 l-1 -33 -77 0 -76 0 6 243 c4 133 11 289 17
347 14 148 51 383 63 398 6 8 26 12 50 10 l39 -3 -1 -162z m109 133 c24 -11
26 -17 37 -141 6 -72 13 -284 15 -472 2 -279 1 -344 -10 -348 -8 -3 -41 -5
-74 -5 l-60 0 6 322 c3 178 9 401 12 496 7 192 2 182 74 148z m-250 -8 c0 -7
-9 -68 -20 -136 -24 -156 -38 -338 -46 -612 l-6 -215 -75 3 -76 4 7 181 c12
322 39 530 86 673 18 54 26 64 68 87 53 30 62 32 62 15z m364 -87 c20 -27 48
-80 62 -117 l26 -69 -5 -305 c-3 -168 -9 -318 -14 -335 -8 -26 -15 -30 -51
-33 l-42 -3 0 103 c0 99 -4 276 -15 641 -3 92 -3 167 -1 167 2 0 20 -22 40
-49z m-573 -182 c-21 -112 -37 -298 -46 -528 -3 -80 -6 -145 -8 -147 -1 -1
-17 1 -34 3 -40 6 -40 5 -18 219 19 182 40 321 61 394 19 72 56 172 60 167 2
-2 -5 -51 -15 -108z m4037 -13 c15 -8 46 -34 69 -58 41 -42 43 -47 58 -143 13
-91 23 -195 40 -431 7 -90 4 -94 -67 -94 -31 0 -34 10 -43 145 -16 230 -36
375 -74 523 -11 39 -17 72 -15 72 3 0 17 -6 32 -14z m-13 -251 c8 -49 19 -146
25 -215 5 -69 12 -153 15 -187 l6 -63 -33 0 c-32 0 -33 1 -35 43 -1 23 -7 159
-13 302 -6 143 -12 280 -15 305 -4 38 -2 34 15 -25 10 -38 26 -110 35 -160z
m210 -20 c71 -159 130 -394 106 -418 -4 -4 -28 -9 -52 -10 l-44 -2 -11 160
c-14 201 -25 308 -31 318 -2 4 -1 7 2 7 3 0 17 -25 30 -55z m-5108 13 c-3 -7
-5 -2 -5 12 0 14 2 19 5 13 2 -7 2 -19 0 -25z m1592 -68 c19 -128 30 -257 24
-280 -3 -11 -19 -28 -34 -36 l-29 -15 7 98 c5 54 8 151 8 215 0 64 3 114 6
110 3 -4 12 -45 18 -92z m3107 -201 c1 -39 -1 -49 -4 -24 -3 33 -6 36 -12 20
-8 -19 -9 -19 -9 2 -1 26 -34 47 -62 40 -26 -7 -24 2 4 13 17 8 11 9 -25 5
-119 -13 -137 -17 -131 -31 5 -14 -4 -16 -89 -16 -15 -1 -25 -5 -22 -9 3 -5
14 -9 25 -9 11 0 18 -4 14 -9 -3 -6 -14 -8 -25 -6 -24 5 -26 -8 -3 -31 16 -15
14 -16 -25 -12 -23 2 -42 0 -42 -4 0 -4 -11 -3 -24 2 -13 5 -46 11 -72 14 -26
4 -50 10 -54 15 -3 6 -11 6 -20 1 -24 -16 -35 -11 -14 5 10 8 15 15 9 14 -24
-3 -35 2 -35 16 0 9 -6 12 -15 9 -14 -6 -21 12 -16 39 4 21 -24 -2 -30 -24 -5
-21 -6 -19 -10 13 l-5 37 346 -3 345 -3 1 -64z m-521 -97 c-3 -3 -11 0 -18 7
-9 10 -8 11 6 5 10 -3 15 -9 12 -12z m35 8 c0 -5 -5 -10 -11 -10 -5 0 -7 5 -4
10 3 6 8 10 11 10 2 0 4 -4 4 -10z m50 -20 c0 -5 -5 -10 -11 -10 -5 0 -7 5 -4
10 3 6 8 10 11 10 2 0 4 -4 4 -10z m627 -222 c-2 -13 -4 -5 -4 17 -1 22 1 32
4 23 2 -10 2 -28 0 -40z m40 46 c-3 -3 -12 -4 -19 -1 -8 3 -5 6 6 6 11 1 17
-2 13 -5z"/>
<path d="M1972 2590 c0 -14 2 -19 5 -12 2 6 2 18 0 25 -3 6 -5 1 -5 -13z"/>
<path d="M4952 658 c-16 -16 -15 -50 2 -73 21 -30 70 -10 74 30 5 44 -46 73
-76 43z"/>
<path d="M3672 1880 c0 -14 2 -19 5 -12 2 6 2 18 0 25 -3 6 -5 1 -5 -13z"/>
<path d="M3662 1690 c0 -14 2 -19 5 -12 2 6 2 18 0 25 -3 6 -5 1 -5 -13z"/>
</g>
</svg>
